<?xml version="1.0" encoding="utf-8"?>
<!-- Generator: Adobe Illustrator 21.0.0, SVG Export Plug-In . SVG Version: 6.00 Build 0)  -->
<svg version="1.1" id="Logo_" xmlns="http://www.w3.org/2000/svg" xmlns:xlink="http://www.w3.org/1999/xlink" x="0px" y="0px"
	 viewBox="0 0 124 114" style="enable-background:new 0 0 124 114;" xml:space="preserve">
<style type="text/css">
	.st0{fill:#F45E43;}
	.st1{fill:#F63A4D;}
</style>
<title>Logo_mjml</title>
<path id="Rectangle_arrondi_11" class="st0" d="M28.5,16.6H69c5.7,0,10.3,4.6,10.3,10.3v0c0,5.7-4.6,10.3-10.3,10.3H28.5
	c-5.7,0-10.3-4.6-10.3-10.3v0C18.2,21.2,22.8,16.6,28.5,16.6z"/>
<ellipse class="st0" cx="95.5" cy="26.9" rx="10.5" ry="10.3"/>
<path id="Rectangle_arrondi_11_copie" class="st0" d="M55.4,47.3h40.1c5.7-0.4,10.6,3.9,11,9.6s-3.9,10.6-9.6,11c-0.3,0-0.7,0-1,0
	H55.4c-5.7,0.4-10.6-3.9-11-9.6c-0.4-5.7,3.9-10.6,9.6-11c0.3,0,0.7,0,1,0C55,47.3,55.4,47.3,55.4,47.3z"/>
<circle id="Ellipse_13_copie" class="st1" cx="28.7" cy="57.5" r="10.5"/>
<path id="Rectangle_arrondi_11_copie_2" class="st0" d="M28.5,76.8H69c5.7,0,10.3,4.6,10.3,10.3v0c0,5.7-4.6,10.3-10.3,10.3H28.5
	c-5.7,0-10.3-4.6-10.3-10.3v0C18.2,81.4,22.8,76.8,28.5,76.8z"/>
<ellipse id="Ellipse_13_copie_2" class="st0" cx="95.5" cy="87.1" rx="10.5" ry="10.3"/>
</svg>
